Coordinates
version=1
nRows=11
nColumns=40
inDegrees=yes

Units are S.I. units (second, meters, Newtons, ...)
If the header above contains a line with 'inDegrees', this indicates whether rotational values are in degrees (yes) or radians (no).

endheader
time	pelvis_tilt	pelvis_list	pelvis_rotation	pelvis_tx	pelvis_ty	pelvis_tz	hip_flexion_r	hip_adduction_r	hip_rotation_r	knee_angle_r	knee_angle_r_beta	ankle_angle_r	subtalar_angle_r	mtp_angle_r	hip_flexion_l	hip_adduction_l	hip_rotation_l	knee_angle_l	knee_angle_l_beta	ankle_angle_l	subtalar_angle_l	mtp_angle_l	lumbar_extension	lumbar_bending	lumbar_rotation	arm_flex_r	arm_add_r	arm_rot_r	elbow_flex_r	pro_sup_r	wrist_flex_r	wrist_dev_r	arm_flex_l	arm_add_l	arm_rot_l	elbow_flex_l	pro_sup_l	wrist_flex_l	wrist_dev_l
      1.28000000	     -2.35171648	    -11.54117303	     -0.70359617	      0.97532669	      0.90252989	      0.26276674	     23.20007852	     14.55583628	     -6.21374148	     15.33382406	      0.26762572	    -10.76177814	    -21.16869278	      0.00000000	     -3.29816040	    -28.50972592	    -26.17332979	     59.92989803	      1.04597404	    -23.50516232	    -11.41206354	      0.00000000	      4.18336919	     15.83177250	     -3.01747688	     41.42065939	    -15.09420241	     41.42065939	     75.40244618	     44.99442609	      0.00000000	      0.00000000	     41.42065939	    -15.09420241	     41.42065939	     75.40244618	     44.99442609	      0.00000000	      0.00000000
      1.28500000	     -2.44847627	    -12.14942720	     -0.65248536	      0.98202311	      0.90296156	      0.26381331	     22.73701113	     15.34660761	     -6.15662207	     15.04081154	      0.26251168	    -10.68351299	    -21.62580415	      0.00000000	     -1.91548417	    -29.64996488	    -25.32522459	     61.84928737	      1.07947370	    -23.51887250	    -12.23827844	      0.00000000	      4.37250460	     16.43934559	     -3.24385505	     41.43821932	    -15.09344019	     41.43821932	     75.39609128	     44.99466727	      0.00000000	      0.00000000	     41.43821932	    -15.09344019	     41.43821932	     75.39609128	     44.99466727	      0.00000000	      0.00000000
      1.29000000	     -2.49160816	    -12.39968432	     -0.72491835	      0.98854557	      0.90366560	      0.26510769	     22.26229542	     15.79389896	     -6.02206960	     14.92740334	      0.26053234	    -10.45166152	    -21.84920013	      0.00000000	     -0.66587948	    -30.26469157	    -24.53133238	     63.54954260	      1.10914876	    -23.51149383	    -13.18149968	      0.00000000	      4.41813623	     16.55500633	     -3.23342523	     41.44585912	    -15.09310935	     41.44585912	     75.39334869	     44.99476922	      0.00000000	      0.00000000	     41.44585912	    -15.09310935	     41.44585912	     75.39334869	     44.99476922	      0.00000000	      0.00000000
      1.29500000	     -2.67594327	    -13.09777721	     -0.60607440	      0.99522160	      0.90388382	      0.26599115	     21.88452128	     16.62901302	     -6.12068703	     14.57789736	      0.25443231	    -10.37740055	    -22.25621217	      0.00000000	      0.95579325	    -31.45851683	    -23.45875455	     65.42541916	      1.14188898	    -23.09655075	    -13.59541693	      0.00000000	      4.82824325	     17.30188113	     -3.51704943	     41.46067851	    -15.09246894	     41.46067851	     75.38806666	     44.99496199	      0.00000000	      0.00000000	     41.46067851	    -15.09246894	     41.46067851	     75.38806666	     44.99496199	      0.00000000	      0.00000000
      1.30000000	     -2.56370217	    -13.12907759	     -0.79618633	      1.00158081	      0.90504586	      0.26748236	     21.18871862	     16.89434912	     -5.77765664	     14.45607877	      0.25230617	    -10.01606628	    -22.20266187	      0.00000000	      1.92627555	    -31.72437186	    -22.80921237	     66.85012772	      1.16675483	    -22.73314640	    -14.06706063	      0.00000000	      4.56726213	     17.13198516	     -3.38909169	     41.46415870	    -15.09231879	     41.46415870	     75.38683320	     44.99500636	      0.00000000	      0.00000000	     41.46415870	    -15.09231879	     41.46415870	     75.38683320	     44.99500636	      0.00000000	      0.00000000
      1.30500000	     -2.85501069	    -13.67197585	     -0.65449598	      1.00800762	      0.90521520	      0.26825864	     20.94878798	     17.54587099	     -5.85651468	     14.13556494	      0.24671215	     -9.97303018	    -22.57278253	      0.00000000	      3.80813109	    -32.62864305	    -21.56152370	     68.57522336	      1.19686343	    -22.21153017	    -14.40014797	      0.00000000	      5.05218622	     17.74160049	     -3.58386855	     41.47516449	    -15.09184465	     41.47516449	     75.38295180	     44.99514420	      0.00000000	      0.00000000	     41.47516449	    -15.09184465	     41.47516449	     75.38295180	     44.99514420	      0.00000000	      0.00000000
      1.31000000	     -2.68098718	    -13.64137131	     -0.90070798	      1.01431004	      0.90652052	      0.26989281	     20.16067061	     17.75612637	     -5.53731130	     14.00784734	      0.24448306	     -9.55721467	    -22.42845856	      0.00000000	      4.64229694	    -32.82131203	    -21.08688396	     69.81712964	      1.21853879	    -21.67957682	    -14.54065745	      0.00000000	      4.64148265	     17.39686066	     -3.37071412	     41.47684936	    -15.09177214	     41.47684936	     75.38235984	     44.99516503	      0.00000000	      0.00000000	     41.47684936	    -15.09177214	     41.47684936	     75.38235984	     44.99516503	      0.00000000	      0.00000000
      1.31500000	     -3.07529581	    -14.47329157	     -0.61021690	      1.02092155	      0.90635518	      0.27017244	     19.93100275	     18.65090242	     -5.73416590	     13.39101065	      0.23371723	     -9.64627991	    -22.86492703	      0.00000000	      6.84996154	    -34.00844599	    -19.55942872	     71.53928808	      1.24859612	    -20.71744425	    -14.35523894	      0.00000000	      5.46199365	     18.45497331	     -3.85974458	     41.49790316	    -15.09086803	     41.49790316	     75.37501663	     44.99541849	      0.00000000	      0.00000000	     41.49790316	    -15.09086803	     41.49790316	     75.37501663	     44.99541849	      0.00000000	      0.00000000
      1.32000000	     -3.13929198	    -14.49821421	     -0.72333330	      1.02710634	      0.90727952	      0.27136151	     19.39741318	     18.84703892	     -5.47524799	     13.17487271	      0.22994491	     -9.37946294	    -22.88820267	      0.00000000	      8.19308441	    -34.15100906	    -18.72976618	     72.75172951	      1.26975722	    -19.95580396	    -14.35718655	      0.00000000	      5.45024374	     18.32858453	     -3.78995763	     41.50835097	    -15.09042065	     41.50835097	     75.37140836	     44.99553992	      0.00000000	      0.00000000	     41.50835097	    -15.09042065	     41.50835097	     75.37140836	     44.99553992	      0.00000000	      0.00000000
      1.32500000	     -3.29371116	    -14.72727914	     -0.77311439	      1.03340788	      0.90787996	      0.27232282	     18.94986167	     19.21854469	     -5.34540621	     12.88642567	      0.22491056	     -9.15383074	    -22.90054111	      0.00000000	      9.73803797	    -34.53889353	    -17.79697722	     73.98393260	      1.29126322	    -19.06037281	    -14.18024980	      0.00000000	      5.66696042	     18.50009577	     -3.83016978	     41.52367778	    -15.08976575	     41.52367778	     75.36615344	     44.99571348	      0.00000000	      0.00000000	     41.52367778	    -15.08976575	     41.52367778	     75.36615344	     44.99571348	      0.00000000	      0.00000000
      1.33000000	     -3.39303104	    -14.82804085	     -0.85735780	      1.03964349	      0.90869900	      0.27327176	     18.41325676	     19.45918905	     -5.14688707	     12.57908637	      0.21954647	     -8.90871178	    -22.79791039	      0.00000000	     11.15533991	    -34.72459018	    -16.96113656	     75.05743943	      1.30999945	    -18.17673129	    -13.97149513	      0.00000000	      5.76327305	     18.50750744	     -3.81086301	     41.54200015	    -15.08898540	     41.54200015	     75.35994184	     44.99591276	      0.00000000	      0.00000000	     41.54200015	    -15.08898540	     41.54200015	     75.35994184	     44.99591276	      0.00000000	      0.00000000
